<?xml version="1.0" encoding="UTF-8"?>
<svg version="1.1" xmlns="http://www.w3.org/2000/svg" width="128" height="128">
<path d="M0 0 C1.32299355 -0.01248528 1.32299355 -0.01248528 2.67271423 -0.02522278 C5.58434488 -0.04928767 8.49575119 -0.05809179 11.4074707 -0.06469727 C13.43903163 -0.07366813 15.47059189 -0.08279006 17.50215149 -0.09205627 C21.76154178 -0.10854061 26.02085353 -0.11624506 30.28027344 -0.11914062 C35.7196901 -0.12451564 41.15836104 -0.16216201 46.59756756 -0.20788479 C50.79538111 -0.23773505 54.99301708 -0.24486596 59.19092751 -0.24586678 C61.19507058 -0.2500553 63.19921485 -0.26243423 65.20325279 -0.28338432 C86.0552319 -0.4839707 86.0552319 -0.4839707 93.14575195 5.30639648 C99.46582061 12.08349814 101.44481564 18.04164 101.45214844 27.16064453 C101.46047195 28.04264023 101.46879547 28.92463593 101.47737122 29.83335876 C101.50143611 32.74498941 101.51024023 35.65639572 101.5168457 38.56811523 C101.52581657 40.59967616 101.5349385 42.63123642 101.54420471 44.66279602 C101.56068905 48.92218631 101.56839349 53.18149806 101.57128906 57.44091797 C101.57666408 62.88033463 101.61431045 68.31900558 101.66003323 73.75821209 C101.68988349 77.95602564 101.6970144 82.15366161 101.69801521 86.35157204 C101.70220373 88.35571511 101.71458266 90.35985938 101.73553276 92.36389732 C101.93611914 113.21587643 101.93611914 113.21587643 96.14575195 120.30639648 C89.3686503 126.62646515 83.41050844 128.60546017 74.29150391 128.61279297 C72.96851036 128.62527824 72.96851036 128.62527824 71.61878967 128.63801575 C68.70715902 128.66208064 65.79575272 128.67088476 62.8840332 128.67749023 C60.85247228 128.6864611 58.82091202 128.69558303 56.78935242 128.70484924 C52.52996213 128.72133358 48.27065037 128.72903802 44.01123047 128.73193359 C38.57181381 128.73730861 33.13314286 128.77495498 27.69393635 128.82067776 C23.4961228 128.85052802 19.29848683 128.85765893 15.1005764 128.85865974 C13.09643333 128.86284826 11.09228906 128.8752272 9.08825111 128.89617729 C-11.763728 129.09676367 -11.763728 129.09676367 -18.85424805 123.30639648 C-25.17431671 116.52929483 -27.15331173 110.57115297 -27.16064453 101.45214844 C-27.16896805 100.57015274 -27.17729156 99.68815704 -27.18586731 98.7794342 C-27.2099322 95.86780356 -27.21873632 92.95639725 -27.2253418 90.04467773 C-27.23431266 88.01311681 -27.24343459 85.98155655 -27.25270081 83.94999695 C-27.26918515 79.69060666 -27.27688959 75.4312949 -27.27978516 71.171875 C-27.28516017 65.73245834 -27.32280654 60.29378739 -27.36852932 54.85458088 C-27.39837958 50.65676733 -27.40551049 46.45913136 -27.40651131 42.26122093 C-27.41069983 40.25707786 -27.42307876 38.25293359 -27.44402885 36.24889565 C-27.64461523 15.39691654 -27.64461523 15.39691654 -21.85424805 8.30639648 C-15.07714639 1.98632782 -9.11900453 0.0073328 0 0 Z " fill="#0A0A0A" transform="translate(26.854248046875,-0.306396484375)"/>
<path d="M0 0 C7.26 0 14.52 0 22 0 C31 21.25 31 21.25 31 25 C21.1 25.495 21.1 25.495 11 26 C10.443125 27.7325 9.88625 29.465 9.3125 31.25 C7.97431662 35.41323718 6.42536039 39.4101851 4.71875 43.4375 C1.62489027 50.78591715 -1.09381449 58.25714754 -3.8125 65.75 C-4.31941034 67.14071656 -4.82657044 68.53134211 -5.33398438 69.921875 C-6.55932026 73.28005491 -7.77955111 76.64002513 -9 80 C-15.6 80 -22.2 80 -29 80 C-27.27481374 73.70814422 -25.14879376 67.68310435 -22.75 61.625 C-20.21373893 55.21117303 -17.81752583 48.76810155 -15.5625 42.25 C-13.0317275 34.93871972 -10.45244601 27.64765333 -7.8125 20.375 C-7.491604 19.4871582 -7.17070801 18.59931641 -6.84008789 17.68457031 C-6.5280542 16.82702148 -6.21602051 15.96947266 -5.89453125 15.0859375 C-5.62487549 14.3439209 -5.35521973 13.6019043 -5.07739258 12.83740234 C-3.44388232 8.53541815 -1.70901963 4.27254909 0 0 Z " fill="#FBFBFB" transform="translate(53,24)"/>
<path d="M0 0 C5.94 0 11.88 0 18 0 C20.10317065 5.56710416 22.20266161 11.13557707 24.29882812 16.70532227 C25.01169729 18.59795108 25.72555178 20.49020909 26.44042969 22.38208008 C27.47072553 25.10920715 28.49741271 27.83766987 29.5234375 30.56640625 C29.84122162 31.40522842 30.15900574 32.2440506 30.48641968 33.10829163 C30.7865799 33.90859299 31.08674011 34.70889435 31.39599609 35.53344727 C31.65802826 36.22849869 31.92006042 36.92355011 32.19003296 37.6396637 C33.24740308 40.72096079 34.10504882 43.86767087 35 47 C28.73 47 22.46 47 16 47 C14.99652209 43.87607768 13.9970752 40.75096549 13 37.625 C12.57074219 36.29082031 12.57074219 36.29082031 12.1328125 34.9296875 C11.86210938 34.07890625 11.59140625 33.228125 11.3125 32.3515625 C11.06113281 31.56604004 10.80976562 30.78051758 10.55078125 29.97119141 C10 28 10 28 10 26 C9.34 26 8.68 26 8 26 C7.88785156 26.82757813 7.77570313 27.65515625 7.66015625 28.5078125 C6.9147474 32.45098121 5.74611197 36.09103151 4.4375 39.875 C3.633125 42.22625 2.82875 44.5775 2 47 C-4.27 47 -10.54 47 -17 47 C-15.61686831 42.0898825 -14.22884437 37.42403405 -12.11328125 32.78125 C-9.91631872 27.92882402 -8.15325721 22.97681387 -6.4375 17.9375 C-5.85373557 16.23798183 -5.26911043 14.53875904 -4.68359375 12.83984375 C-4.30545532 11.73177368 -4.30545532 11.73177368 -3.91967773 10.60131836 C-2.66385127 7.04919969 -1.3228851 3.52769361 0 0 Z " fill="#FAFAFA" transform="translate(69,57)"/>
<path d="M0 0 C0.66 0 1.32 0 2 0 C2.6875 2.3125 2.6875 2.3125 3 5 C1.6875 6.8125 1.6875 6.8125 0 8 C-0.66 8 -1.32 8 -2 8 C-1.34 5.36 -0.68 2.72 0 0 Z " fill="#1C1C1C" transform="translate(77,83)"/>
</svg>
